<svg xmlns="http://www.w3.org/2000/svg" xmlns:xlink="http://www.w3.org/1999/xlink" width="520" height="393.487" viewBox="0 0 520 393.487">
  <defs>
    <clipPath id="clip-path">
      <path id="Tracciato_174" data-name="Tracciato 174" d="M0-606.513H520V-1000H0Z" transform="translate(0 1000)" fill="none"/>
    </clipPath>
    <clipPath id="clip-path-5">
      <path id="Tracciato_254" data-name="Tracciato 254" d="M330.372-665.174a129.987,129.987,0,0,0,130,129.985h130a129.989,129.989,0,0,0-130-129.98h0v-.005Z" transform="translate(-330.372 665.174)" fill="none"/>
    </clipPath>
  </defs>
  <g id="Raggruppa_943" data-name="Raggruppa 943" transform="translate(0 1000)">
    <g id="Raggruppa_943-2" data-name="Raggruppa 943" transform="translate(216.655 -781.595)">
      <path id="Tracciato_172" data-name="Tracciato 172" d="M-66.787,0l-43.33,43.33h0L-66.787,0Z" transform="translate(110.117)" fill="#ff9500"/>
    </g>
    <g id="Raggruppa_945" data-name="Raggruppa 945" transform="translate(0 -1000)" clip-path="url(#clip-path)">
      <g id="Raggruppa_944" data-name="Raggruppa 944" transform="translate(259.985 261.735)">
        <path id="Tracciato_173" data-name="Tracciato 173" d="M0,0Z" fill="#ff9500"/>
      </g>
    </g>
    <g id="Raggruppa_946" data-name="Raggruppa 946" transform="translate(129.997 -868.253)">
      <path id="Tracciato_175" data-name="Tracciato 175" d="M-33.393,0-55.058,21.665V43.329L-11.729,0Z" transform="translate(55.058)" fill="#ff9500"/>
    </g>
    <g id="Raggruppa_947" data-name="Raggruppa 947" transform="translate(129.997 -868.253)">
      <path id="Tracciato_176" data-name="Tracciato 176" d="M-100.18,0l-64.993,64.993V86.658L-78.515,0Z" transform="translate(165.173)" fill="#ff9500"/>
    </g>
    <g id="Raggruppa_948" data-name="Raggruppa 948" transform="translate(129.997 -868.253)">
      <path id="Tracciato_177" data-name="Tracciato 177" d="M-166.966,0-275.289,108.323v21.665L-145.3,0Z" transform="translate(275.289)" fill="#ff9500"/>
    </g>
    <g id="Raggruppa_949" data-name="Raggruppa 949" transform="translate(151.661 -846.588)">
      <path id="Tracciato_178" data-name="Tracciato 178" d="M-166.967,0-275.29,108.323h21.665l86.658-86.658Z" transform="translate(275.29)" fill="#ff9500"/>
    </g>
    <g id="Raggruppa_950" data-name="Raggruppa 950" transform="translate(194.99 -803.259)">
      <path id="Tracciato_179" data-name="Tracciato 179" d="M-100.181,0l-64.994,64.994h21.665l43.33-43.33Z" transform="translate(165.175)" fill="#ff9500"/>
    </g>
    <g id="Raggruppa_951" data-name="Raggruppa 951" transform="translate(238.32 -759.93)">
      <path id="Tracciato_180" data-name="Tracciato 180" d="M-33.393,0-55.058,21.665h21.665Z" transform="translate(55.058)" fill="#ff9500"/>
    </g>
    <path id="Tracciato_181" data-name="Tracciato 181" d="M660.719-650.719h32.5v-14.455h-32.5Z" transform="translate(-400.735 -203.076)" fill="#eb5a95"/>
    <path id="Tracciato_182" data-name="Tracciato 182" d="M660.719-577.249h32.5V-591.7h-32.5Z" transform="translate(-400.735 -247.637)" fill="#eb5a95"/>
    <path id="Tracciato_183" data-name="Tracciato 183" d="M660.719-503.776h32.5v-14.459h-32.5Z" transform="translate(-400.735 -292.197)" fill="#eb5a95"/>
    <path id="Tracciato_184" data-name="Tracciato 184" d="M660.719-430.4h32.5v-14.356h-32.5Z" transform="translate(-400.735 -336.763)" fill="#eb5a95"/>
    <path id="Tracciato_185" data-name="Tracciato 185" d="M660.719-357.082h32.5v-14.455h-32.5Z" transform="translate(-400.735 -381.171)" fill="#eb5a95"/>
    <path id="Tracciato_186" data-name="Tracciato 186" d="M743.312-613.859h32.5v-14.454h-32.5Z" transform="translate(-450.828 -225.433)" fill="#eb5a95"/>
    <path id="Tracciato_187" data-name="Tracciato 187" d="M743.312-540.389h32.5v-14.455h-32.5Z" transform="translate(-450.828 -269.993)" fill="#eb5a95"/>
    <path id="Tracciato_188" data-name="Tracciato 188" d="M743.312-466.915h32.5v-14.459h-32.5Z" transform="translate(-450.828 -314.553)" fill="#eb5a95"/>
    <path id="Tracciato_189" data-name="Tracciato 189" d="M743.312-393.539h32.5v-14.356h-32.5Z" transform="translate(-450.828 -359.119)" fill="#eb5a95"/>
    <path id="Tracciato_190" data-name="Tracciato 190" d="M825.905-650.719h32.5v-14.455h-32.5Z" transform="translate(-500.922 -203.076)" fill="#eb5a95"/>
    <path id="Tracciato_191" data-name="Tracciato 191" d="M825.905-577.249h32.5V-591.7h-32.5Z" transform="translate(-500.922 -247.637)" fill="#eb5a95"/>
    <path id="Tracciato_192" data-name="Tracciato 192" d="M825.905-503.776h32.5v-14.459h-32.5Z" transform="translate(-500.922 -292.197)" fill="#eb5a95"/>
    <path id="Tracciato_193" data-name="Tracciato 193" d="M825.905-430.4h32.5v-14.356h-32.5Z" transform="translate(-500.922 -336.763)" fill="#eb5a95"/>
    <path id="Tracciato_194" data-name="Tracciato 194" d="M825.905-357.082h32.5v-14.455h-32.5Z" transform="translate(-500.922 -381.171)" fill="#eb5a95"/>
    <path id="Tracciato_195" data-name="Tracciato 195" d="M908.5-613.859H941v-14.454H908.5Z" transform="translate(-551.016 -225.433)" fill="#eb5a95"/>
    <path id="Tracciato_196" data-name="Tracciato 196" d="M908.5-540.389H941v-14.455H908.5Z" transform="translate(-551.016 -269.993)" fill="#eb5a95"/>
    <path id="Tracciato_197" data-name="Tracciato 197" d="M908.5-466.915H941v-14.459H908.5Z" transform="translate(-551.016 -314.553)" fill="#eb5a95"/>
    <path id="Tracciato_198" data-name="Tracciato 198" d="M908.5-393.539H941v-14.356H908.5Z" transform="translate(-551.016 -359.119)" fill="#eb5a95"/>
    <g id="Raggruppa_952" data-name="Raggruppa 952" transform="translate(476.667 -911.583)">
      <path id="Tracciato_199" data-name="Tracciato 199" d="M0-66.789H0l43.331-43.33h0Z" transform="translate(0 110.12)" fill="#922ab8"/>
    </g>
    <g id="Raggruppa_954" data-name="Raggruppa 954" transform="translate(0 -1000)" clip-path="url(#clip-path)">
      <g id="Raggruppa_953" data-name="Raggruppa 953" transform="translate(519.999 131.748)">
        <path id="Tracciato_200" data-name="Tracciato 200" d="M0,0Z" fill="#922ab8"/>
      </g>
    </g>
    <g id="Raggruppa_955" data-name="Raggruppa 955" transform="translate(390.005 -998.243)">
      <path id="Tracciato_202" data-name="Tracciato 202" d="M-33.395,0-55.06,21.665V43.33L-11.729,0Z" transform="translate(55.06)" fill="#922ab8"/>
    </g>
    <g id="Raggruppa_956" data-name="Raggruppa 956" transform="translate(390.007 -998.245)">
      <path id="Tracciato_203" data-name="Tracciato 203" d="M-100.18,0V21.664l-64.994,65V65Z" transform="translate(165.174)" fill="#922ab8"/>
    </g>
    <g id="Raggruppa_957" data-name="Raggruppa 957" transform="translate(390.007 -954.912)">
      <path id="Tracciato_204" data-name="Tracciato 204" d="M-100.18,0V21.669l-64.994,64.992V64.992Z" transform="translate(165.174)" fill="#922ab8"/>
    </g>
    <g id="Raggruppa_958" data-name="Raggruppa 958" transform="translate(411.672 -911.578)">
      <path id="Tracciato_205" data-name="Tracciato 205" d="M-66.787,0V21.664L-88.451,43.328h-21.665Z" transform="translate(110.116)" fill="#922ab8"/>
    </g>
    <g id="Raggruppa_959" data-name="Raggruppa 959" transform="translate(455.001 -998.245)">
      <path id="Tracciato_206" data-name="Tracciato 206" d="M-66.795,0l-43.334,43.333V21.664L-88.464,0Z" transform="translate(110.129)" fill="#922ab8"/>
    </g>
    <g id="Raggruppa_960" data-name="Raggruppa 960" transform="translate(455.001 -998.245)">
      <path id="Tracciato_207" data-name="Tracciato 207" d="M0-100.193v21.664l65-65V-165.2Z" transform="translate(0 165.196)" fill="#922ab8"/>
    </g>
    <g id="Raggruppa_961" data-name="Raggruppa 961" transform="translate(455.001 -954.912)">
      <path id="Tracciato_208" data-name="Tracciato 208" d="M0-100.186v21.664l65-65v-21.664Z" transform="translate(0 165.183)" fill="#922ab8"/>
    </g>
    <g id="Raggruppa_962" data-name="Raggruppa 962" transform="translate(476.666 -911.583)">
      <path id="Tracciato_209" data-name="Tracciato 209" d="M0-66.793H21.67L43.334-88.462v-21.664Z" transform="translate(0 110.126)" fill="#922ab8"/>
    </g>
    <path id="Tracciato_210" data-name="Tracciato 210" d="M0-320.377H65v-14.455H0Z" transform="translate(0 -403.433)" fill="#13aeef"/>
    <path id="Tracciato_211" data-name="Tracciato 211" d="M0-246.906H65v-14.455H0Z" transform="translate(0 -447.994)" fill="#13aeef"/>
    <path id="Tracciato_212" data-name="Tracciato 212" d="M0-173.431H65V-187.89H0Z" transform="translate(0 -492.555)" fill="#13aeef"/>
    <path id="Tracciato_213" data-name="Tracciato 213" d="M0-100.054H65V-114.41H0Z" transform="translate(0 -537.122)" fill="#13aeef"/>
    <path id="Tracciato_214" data-name="Tracciato 214" d="M0-26.734H65V-41.189H0Z" transform="translate(0 -581.531)" fill="#13aeef"/>
    <path id="Tracciato_215" data-name="Tracciato 215" d="M165.189-283.516h65v-14.455h-65Z" transform="translate(-100.189 -425.79)" fill="#13aeef"/>
    <path id="Tracciato_216" data-name="Tracciato 216" d="M165.189-210.046h65V-224.5h-65Z" transform="translate(-100.189 -470.35)" fill="#13aeef"/>
    <path id="Tracciato_217" data-name="Tracciato 217" d="M165.189-136.57h65v-14.459h-65Z" transform="translate(-100.189 -514.912)" fill="#13aeef"/>
    <path id="Tracciato_218" data-name="Tracciato 218" d="M165.189-63.193h65V-77.549h-65Z" transform="translate(-100.189 -559.478)" fill="#13aeef"/>
    <g id="Raggruppa_965" data-name="Raggruppa 965" transform="translate(0 -1000)" clip-path="url(#clip-path)">
      <g id="Raggruppa_963" data-name="Raggruppa 963" transform="translate(129.997 118.441)">
        <path id="Tracciato_219" data-name="Tracciato 219" d="M0-20.488v.015C0-24.965.233-29.4.672-33.78A131.4,131.4,0,0,0,0-20.488" transform="translate(0 33.78)" fill="#922ab8"/>
      </g>
      <g id="Raggruppa_964" data-name="Raggruppa 964" transform="translate(389.331 261.747)">
        <path id="Tracciato_220" data-name="Tracciato 220" d="M-1.033-.019V-.031c0,4.49-.232,8.925-.67,13.3a131.423,131.423,0,0,0,.67-13.29" transform="translate(1.703 0.031)" fill="#922ab8"/>
      </g>
    </g>
    <path id="Tracciato_222" data-name="Tracciato 222" d="M0-865.546H130v-130H0Z" transform="translate(0 -2.704)" fill="#eb5a95"/>
    <path id="Tracciato_223" data-name="Tracciato 223" d="M991.145-204.832h130v-130h-130Z" transform="translate(-601.142 -403.433)" fill="#ff2e16"/>
    <g id="Raggruppa_969" data-name="Raggruppa 969" transform="translate(0 -1000)" clip-path="url(#clip-path)">
      <g id="Raggruppa_966" data-name="Raggruppa 966" transform="translate(129.997 0)">
        <path id="Tracciato_224" data-name="Tracciato 224" d="M-406.157-203.076a131.753,131.753,0,0,0-131.752-131.75,131.763,131.763,0,0,0-131.077,118.44,133.108,133.108,0,0,0-.673,13.307v0h263.5Z" transform="translate(669.659 334.826)" fill="#13aeef"/>
      </g>
      <g id="Raggruppa_967" data-name="Raggruppa 967" transform="translate(126.502 261.735)">
        <path id="Tracciato_225" data-name="Tracciato 225" d="M-406.153,0h-263.5A131.752,131.752,0,0,0-537.9,131.753,131.764,131.764,0,0,0-406.823,13.314c.438-4.377.67-8.812.67-13.3Z" transform="translate(669.653)" fill="#28b41e"/>
      </g>
      <g id="Raggruppa_968" data-name="Raggruppa 968" transform="translate(129.997 131.75)">
        <path id="Tracciato_226" data-name="Tracciato 226" d="M-200.383-.007v0h-130a129.986,129.986,0,0,0,130,129.985h130a129.989,129.989,0,0,0-130-129.98" transform="translate(330.385 0.012)" fill="#922ab8"/>
      </g>
    </g>
    <g id="Raggruppa_978" data-name="Raggruppa 978" transform="translate(129.997 -868.25)" clip-path="url(#clip-path-5)">
      <g id="Raggruppa_970" data-name="Raggruppa 970" transform="translate(86.658 86.655)">
        <path id="Tracciato_228" data-name="Tracciato 228" d="M-66.787,0l-43.33,43.33h0L-66.787,0Z" transform="translate(110.117)" fill="#ededed"/>
      </g>
      <g id="Raggruppa_971" data-name="Raggruppa 971" transform="translate(129.987 129.985)">
        <path id="Tracciato_229" data-name="Tracciato 229" d="M0,0Z" fill="#ededed"/>
      </g>
      <g id="Raggruppa_972" data-name="Raggruppa 972" transform="translate(0 -0.002)">
        <path id="Tracciato_230" data-name="Tracciato 230" d="M-33.393,0-55.058,21.665V43.329L-11.729,0Z" transform="translate(55.058)" fill="#ededed"/>
      </g>
      <g id="Raggruppa_973" data-name="Raggruppa 973" transform="translate(0 -0.002)">
        <path id="Tracciato_231" data-name="Tracciato 231" d="M-100.18,0l-64.993,64.993V86.658L-78.515,0Z" transform="translate(165.173)" fill="#ededed"/>
      </g>
      <g id="Raggruppa_974" data-name="Raggruppa 974" transform="translate(0 -0.002)">
        <path id="Tracciato_232" data-name="Tracciato 232" d="M-166.966,0-275.289,108.323v21.665L-145.3,0Z" transform="translate(275.289)" fill="#ededed"/>
      </g>
      <g id="Raggruppa_975" data-name="Raggruppa 975" transform="translate(21.664 21.662)">
        <path id="Tracciato_233" data-name="Tracciato 233" d="M-166.967,0-275.29,108.323h21.665l86.658-86.658Z" transform="translate(275.29)" fill="#ededed"/>
      </g>
      <g id="Raggruppa_976" data-name="Raggruppa 976" transform="translate(64.993 64.991)">
        <path id="Tracciato_234" data-name="Tracciato 234" d="M-100.181,0l-64.994,64.994h21.665l43.33-43.33Z" transform="translate(165.175)" fill="#ededed"/>
      </g>
      <g id="Raggruppa_977" data-name="Raggruppa 977" transform="translate(108.323 108.321)">
        <path id="Tracciato_235" data-name="Tracciato 235" d="M-33.393,0-55.058,21.665h21.665Z" transform="translate(55.058)" fill="#ededed"/>
      </g>
      <path id="Tracciato_236" data-name="Tracciato 236" d="M660.719-650.719h32.5v-14.455h-32.5Z" transform="translate(-530.732 665.174)" fill="#ededed"/>
      <path id="Tracciato_237" data-name="Tracciato 237" d="M660.719-577.249h32.5V-591.7h-32.5Z" transform="translate(-530.732 620.613)" fill="#ededed"/>
      <path id="Tracciato_238" data-name="Tracciato 238" d="M660.719-503.776h32.5v-14.459h-32.5Z" transform="translate(-530.732 576.054)" fill="#ededed"/>
      <path id="Tracciato_239" data-name="Tracciato 239" d="M660.719-430.4h32.5v-14.356h-32.5Z" transform="translate(-530.732 531.487)" fill="#ededed"/>
      <path id="Tracciato_240" data-name="Tracciato 240" d="M660.719-357.082h32.5v-14.455h-32.5Z" transform="translate(-530.732 487.079)" fill="#ededed"/>
      <path id="Tracciato_241" data-name="Tracciato 241" d="M743.312-613.859h32.5v-14.454h-32.5Z" transform="translate(-580.825 642.817)" fill="#ededed"/>
      <path id="Tracciato_242" data-name="Tracciato 242" d="M743.312-540.389h32.5v-14.455h-32.5Z" transform="translate(-580.825 598.257)" fill="#ededed"/>
      <path id="Tracciato_243" data-name="Tracciato 243" d="M743.312-466.915h32.5v-14.459h-32.5Z" transform="translate(-580.825 553.697)" fill="#ededed"/>
      <path id="Tracciato_244" data-name="Tracciato 244" d="M743.312-393.539h32.5v-14.356h-32.5Z" transform="translate(-580.825 509.131)" fill="#ededed"/>
      <path id="Tracciato_245" data-name="Tracciato 245" d="M825.905-650.719h32.5v-14.455h-32.5Z" transform="translate(-630.919 665.174)" fill="#ededed"/>
      <path id="Tracciato_246" data-name="Tracciato 246" d="M825.905-577.249h32.5V-591.7h-32.5Z" transform="translate(-630.919 620.613)" fill="#ededed"/>
      <path id="Tracciato_247" data-name="Tracciato 247" d="M825.905-503.776h32.5v-14.459h-32.5Z" transform="translate(-630.919 576.054)" fill="#ededed"/>
      <path id="Tracciato_248" data-name="Tracciato 248" d="M825.905-430.4h32.5v-14.356h-32.5Z" transform="translate(-630.919 531.487)" fill="#ededed"/>
      <path id="Tracciato_249" data-name="Tracciato 249" d="M825.905-357.082h32.5v-14.455h-32.5Z" transform="translate(-630.919 487.079)" fill="#ededed"/>
      <path id="Tracciato_250" data-name="Tracciato 250" d="M908.5-613.859H941v-14.454H908.5Z" transform="translate(-681.013 642.817)" fill="#ededed"/>
      <path id="Tracciato_251" data-name="Tracciato 251" d="M908.5-540.389H941v-14.455H908.5Z" transform="translate(-681.013 598.257)" fill="#ededed"/>
      <path id="Tracciato_252" data-name="Tracciato 252" d="M908.5-466.915H941v-14.459H908.5Z" transform="translate(-681.013 553.697)" fill="#ededed"/>
      <path id="Tracciato_253" data-name="Tracciato 253" d="M908.5-393.539H941v-14.356H908.5Z" transform="translate(-681.013 509.131)" fill="#ededed"/>
    </g>
    <g id="Raggruppa_979" data-name="Raggruppa 979" transform="translate(0 -781.586)">
      <path id="Tracciato_255" data-name="Tracciato 255" d="M0,0l43.332,43.33h0L0,0Z" transform="translate(0 0.002)" fill="#28b41e"/>
    </g>
    <g id="Raggruppa_980" data-name="Raggruppa 980" transform="translate(97.499 -868.25)">
      <path id="Tracciato_256" data-name="Tracciato 256" d="M0,0V10.832l32.5,32.5V21.67L10.833,0Z" fill="#28b41e"/>
    </g>
    <g id="Raggruppa_981" data-name="Raggruppa 981" transform="translate(97.499 -835.748)">
      <path id="Tracciato_257" data-name="Tracciato 257" d="M0,0V21.665l32.5,32.5V32.5Z" fill="#28b41e"/>
    </g>
    <g id="Raggruppa_982" data-name="Raggruppa 982" transform="translate(97.499 -792.419)">
      <path id="Tracciato_258" data-name="Tracciato 258" d="M0,0V21.67l32.5,32.5V32.5Z" fill="#28b41e"/>
    </g>
    <g id="Raggruppa_983" data-name="Raggruppa 983" transform="translate(97.499 -749.085)">
      <path id="Tracciato_259" data-name="Tracciato 259" d="M0,0V10.832H10.833Z" fill="#28b41e"/>
    </g>
    <g id="Raggruppa_984" data-name="Raggruppa 984" transform="translate(21.665 -868.25)">
      <path id="Tracciato_260" data-name="Tracciato 260" d="M0,0,10.838,10.837V0Z" fill="#28b41e"/>
    </g>
    <g id="Raggruppa_985" data-name="Raggruppa 985" transform="translate(0 -868.25)">
      <path id="Tracciato_261" data-name="Tracciato 261" d="M0-33.4,32.5-.9V-22.564L0-55.071Z" transform="translate(0 55.071)" fill="#28b41e"/>
    </g>
    <g id="Raggruppa_986" data-name="Raggruppa 986" transform="translate(0 -824.916)">
      <path id="Tracciato_262" data-name="Tracciato 262" d="M0-33.393,32.5-.891V-22.555L0-55.057Z" transform="translate(0 55.057)" fill="#28b41e"/>
    </g>
    <g id="Raggruppa_987" data-name="Raggruppa 987" transform="translate(0 -781.587)">
      <path id="Tracciato_263" data-name="Tracciato 263" d="M0-33.393,21.665-11.723H32.5V-22.555L0-55.057Z" transform="translate(0 55.057)" fill="#28b41e"/>
    </g>
    <g id="Raggruppa_988" data-name="Raggruppa 988" transform="translate(65.001 -868.25)">
      <path id="Tracciato_264" data-name="Tracciato 264" d="M0,0,32.5,32.5V10.832L21.665,0Z" fill="#28b41e"/>
    </g>
    <g id="Raggruppa_989" data-name="Raggruppa 989" transform="translate(65.001 -846.586)">
      <path id="Tracciato_265" data-name="Tracciato 265" d="M0,0V21.669l32.5,32.5V32.5Z" fill="#28b41e"/>
    </g>
    <g id="Raggruppa_990" data-name="Raggruppa 990" transform="translate(65.001 -803.246)">
      <path id="Tracciato_266" data-name="Tracciato 266" d="M0,0V21.665l32.5,32.5V32.5Z" fill="#28b41e"/>
    </g>
    <g id="Raggruppa_991" data-name="Raggruppa 991" transform="translate(65.001 -759.917)">
      <path id="Tracciato_267" data-name="Tracciato 267" d="M0,0V21.665H21.665Z" fill="#28b41e"/>
    </g>
    <g id="Raggruppa_992" data-name="Raggruppa 992" transform="translate(43.336 -868.25)">
      <path id="Tracciato_268" data-name="Tracciato 268" d="M0,0,21.665,21.665V0Z" fill="#28b41e"/>
    </g>
    <g id="Raggruppa_993" data-name="Raggruppa 993" transform="translate(32.503 -857.413)">
      <path id="Tracciato_269" data-name="Tracciato 269" d="M0,0V21.669l32.5,32.5V32.5Z" fill="#28b41e"/>
    </g>
    <g id="Raggruppa_994" data-name="Raggruppa 994" transform="translate(32.503 -814.079)">
      <path id="Tracciato_270" data-name="Tracciato 270" d="M0,0V21.665l32.5,32.5V32.5Z" fill="#28b41e"/>
    </g>
    <g id="Raggruppa_995" data-name="Raggruppa 995" transform="translate(32.503 -770.75)">
      <path id="Tracciato_271" data-name="Tracciato 271" d="M0,0V21.669L10.828,32.5H32.5Z" fill="#28b41e"/>
    </g>
    <path id="Tracciato_272" data-name="Tracciato 272" d="M991.145-535.189h14.424V-665.174H991.145Z" transform="translate(-601.142 -203.076)" fill="#ff9500"/>
    <path id="Tracciato_273" data-name="Tracciato 273" d="M1284.861-535.188h14.424V-665.173h-14.424Z" transform="translate(-779.285 -203.077)" fill="#ff9500"/>
    <path id="Tracciato_274" data-name="Tracciato 274" d="M1211.3-535.189h14.541V-665.174H1211.3Z" transform="translate(-734.666 -203.076)" fill="#ff9500"/>
    <path id="Tracciato_275" data-name="Tracciato 275" d="M1137.721-535.189h14.544V-665.174h-14.544Z" transform="translate(-690.042 -203.076)" fill="#ff9500"/>
    <path id="Tracciato_276" data-name="Tracciato 276" d="M1064.412-535.189h14.441V-665.174h-14.441Z" transform="translate(-645.579 -203.076)" fill="#ff9500"/>
  </g>
</svg>
